# Blender v2.79 (sub 0) OBJ File: 'untitled.blend'
# www.blender.org
mtllib bloc.mtl
o Cube_Cube.001
v 1.000000 -1.000000 -1.000000
v 1.000000 -1.000000 1.000000
v -1.000000 -1.000000 1.000000
v -1.000000 -1.000000 -1.000000
v 1.000000 1.000000 -1.000000
v 0.999999 1.000000 1.000001
v -1.000000 1.000000 1.000000
v -1.000000 1.000000 -1.000000
vt 0.668921 0.502318
vt 0.332881 0.502318
vt 0.332880 0.252418
vt 0.668921 0.252418
vt 0.334443 1.005385
vt -0.004722 1.005385
vt -0.004723 0.753161
vt 0.334443 0.753161
vt 0.668921 0.752218
vt 0.332881 0.752218
vt -0.003160 0.252418
vt -0.003160 0.002518
vt 0.332880 0.002518
vt 0.668921 0.002518
vt 1.004961 0.002518
vt 1.004961 0.252418
vn 0.0000 -1.0000 0.0000
vn 0.0000 1.0000 0.0000
vn 1.0000 0.0000 0.0000
vn -0.0000 -0.0000 1.0000
vn -1.0000 -0.0000 -0.0000
vn 0.0000 0.0000 -1.0000
usemtl None
s off
f 1/1/1 2/2/1 3/3/1 4/4/1
f 5/5/2 8/6/2 7/7/2 6/8/2
f 1/1/3 5/9/3 6/10/3 2/2/3
f 2/11/4 6/12/4 7/13/4 3/3/4
f 3/3/5 7/13/5 8/14/5 4/4/5
f 5/15/6 1/16/6 4/4/6 8/14/6
