# Blender v2.79 (sub 0) OBJ File: 'untitled.blend'
# www.blender.org
mtllib bonus.mtl
o Cone
v 0.000000 -0.092565 -0.092565
v 0.092565 -0.092565 0.000000
v -0.000000 -0.092565 0.092565
v -0.092565 -0.092565 -0.000000
v 0.000000 0.092565 0.000000
v -0.000223 -0.144417 0.000000
vt 0.378660 0.194417
vt 0.339995 0.245970
vt 0.339995 0.181529
vt 0.458182 0.245948
vt 0.437804 0.307082
vt 0.417426 0.245948
vt 0.417376 0.194375
vt 0.378711 0.245928
vt 0.378711 0.181487
vt 0.456091 0.194344
vt 0.417426 0.245897
vt 0.417426 0.181456
vt 0.445014 0.163288
vt 0.406206 0.163288
vt 0.339995 0.272057
vt 0.360324 0.246021
vt 0.380752 0.272057
vt 0.367608 0.163288
vn 0.6667 0.3333 -0.6667
vn 0.6667 0.3333 0.6667
vn -0.6667 0.3333 0.6667
vn -0.6667 0.3333 -0.6667
vn -0.4397 -0.7831 -0.4397
vn -0.4397 -0.7831 0.4397
vn 0.4384 -0.7846 0.4384
vn 0.4384 -0.7846 -0.4384
usemtl None
s off
f 1/1/1 5/2/1 2/3/1
f 2/4/2 5/5/2 3/6/2
f 3/7/3 5/8/3 4/9/3
f 4/10/4 5/11/4 1/12/4
f 1/12/5 6/13/5 4/10/5
f 4/9/6 6/14/6 3/7/6
f 3/15/7 6/16/7 2/17/7
f 6/18/8 1/1/8 2/3/8
