# Blender v2.79 (sub 0) OBJ File: 'bonus-2.blend'
# www.blender.org
mtllib bonus-2.mtl
o Cone
v 0.000000 -0.092565 -0.092565
v 0.000000 0.092565 0.000000
v 0.092565 -0.092565 -0.000000
v 0.000000 -0.092565 0.092565
v -0.092565 -0.092565 -0.000000
v -0.000223 -0.144417 -0.000000
vt 0.051004 0.034030
vt 0.948996 0.333361
vt 0.051004 0.632691
vt 0.035325 0.023577
vt 0.964676 0.333361
vt 0.035324 0.643144
vt 0.605265 0.092144
vt 0.333361 0.907856
vt 0.061456 0.092144
vt 0.614926 0.077652
vt 0.333361 0.922348
vt 0.051795 0.077652
vt 0.053474 0.083909
vt 0.583523 0.501002
vt 0.053474 0.916091
vt 0.067943 0.593692
vt 0.498959 0.043305
vt 0.932057 0.593692
vt 0.284550 0.885622
vt 0.085991 0.083323
vt 0.914009 0.083323
vt 0.053537 0.498997
vt 0.585348 0.083761
vt 0.585348 0.916239
vn 0.6667 0.3333 -0.6667
vn 0.6667 0.3333 0.6667
vn -0.6667 0.3333 0.6667
vn -0.6667 0.3333 -0.6667
vn -0.4397 -0.7831 -0.4397
vn -0.4397 -0.7831 0.4397
vn 0.4384 -0.7846 0.4384
vn 0.4384 -0.7846 -0.4384
usemtl None.003
s 1
f 1/1/1 2/2/1 3/3/1
f 3/4/2 2/5/2 4/6/2
f 4/7/3 2/8/3 5/9/3
f 5/10/4 2/11/4 1/12/4
f 1/13/5 6/14/5 5/15/5
f 5/16/6 6/17/6 4/18/6
f 4/19/7 6/20/7 3/21/7
f 6/22/8 1/23/8 3/24/8
