# Blender v2.79 (sub 0) OBJ File: 'untitled.blend'
# www.blender.org
mtllib coin.mtl
o Cylinder
v 0.000000 0.085491 -0.013016
v 0.000000 0.085491 0.013016
v 0.050251 0.069164 -0.013016
v 0.050251 0.069164 0.013016
v 0.081307 0.026418 -0.013016
v 0.081307 0.026418 0.013016
v 0.081307 -0.026418 -0.013016
v 0.081307 -0.026418 0.013016
v 0.050251 -0.069164 -0.013016
v 0.050251 -0.069164 0.013016
v -0.000000 -0.085491 -0.013016
v -0.000000 -0.085491 0.013016
v -0.050251 -0.069164 -0.013016
v -0.050251 -0.069164 0.013016
v -0.081307 -0.026418 -0.013016
v -0.081307 -0.026418 0.013016
v -0.081307 0.026418 -0.013016
v -0.081307 0.026418 0.013016
v -0.050251 0.069164 -0.013016
v -0.050251 0.069164 0.013016
vt 0.828508 0.365385
vt 0.828508 0.535780
vt 0.785813 0.535780
vt 0.785813 0.365385
vt 0.699800 0.536036
vt 0.699800 0.706432
vt 0.657106 0.706432
vt 0.657106 0.536036
vt 0.828508 0.536036
vt 0.828508 0.706432
vt 0.785813 0.706432
vt 0.785813 0.536036
vt 0.742703 0.536036
vt 0.742703 0.706432
vt 0.700008 0.706432
vt 0.700008 0.536036
vt 0.742703 0.365385
vt 0.742703 0.535780
vt 0.700009 0.535780
vt 0.700008 0.365385
vt 0.699801 0.365385
vt 0.699800 0.535780
vt 0.657106 0.535780
vt 0.657106 0.365385
vt 0.871410 0.365385
vt 0.871410 0.535780
vt 0.828716 0.535780
vt 0.828716 0.365385
vt 0.785606 0.365385
vt 0.785606 0.535780
vt 0.742911 0.535780
vt 0.742911 0.365385
vt 0.643705 0.558647
vt 0.656898 0.608725
vt 0.643705 0.658803
vt 0.609164 0.689753
vt 0.566469 0.689753
vt 0.531928 0.658803
vt 0.518735 0.608725
vt 0.531928 0.558647
vt 0.566469 0.527697
vt 0.609164 0.527697
vt 0.785606 0.536036
vt 0.785606 0.706432
vt 0.742911 0.706432
vt 0.742911 0.536036
vt 0.871410 0.536036
vt 0.871410 0.706432
vt 0.828716 0.706432
vt 0.828716 0.536036
vt 0.656898 0.446413
vt 0.643705 0.496491
vt 0.609164 0.527441
vt 0.566469 0.527441
vt 0.531928 0.496491
vt 0.518735 0.446413
vt 0.531928 0.396335
vt 0.566469 0.365385
vt 0.609164 0.365385
vt 0.643705 0.396335
vn 0.3090 0.9511 0.0000
vn 0.8090 0.5878 0.0000
vn 1.0000 -0.0000 0.0000
vn 0.8090 -0.5878 0.0000
vn 0.3090 -0.9511 0.0000
vn -0.3090 -0.9511 0.0000
vn -0.8090 -0.5878 0.0000
vn -1.0000 0.0000 0.0000
vn 0.0000 -0.0000 1.0000
vn -0.8090 0.5878 0.0000
vn -0.3090 0.9511 0.0000
vn 0.0000 0.0000 -1.0000
usemtl None
s off
f 1/1/1 2/2/1 4/3/1 3/4/1
f 3/5/2 4/6/2 6/7/2 5/8/2
f 5/9/3 6/10/3 8/11/3 7/12/3
f 7/13/4 8/14/4 10/15/4 9/16/4
f 9/17/5 10/18/5 12/19/5 11/20/5
f 11/21/6 12/22/6 14/23/6 13/24/6
f 13/25/7 14/26/7 16/27/7 15/28/7
f 15/29/8 16/30/8 18/31/8 17/32/8
f 4/33/9 2/34/9 20/35/9 18/36/9 16/37/9 14/38/9 12/39/9 10/40/9 8/41/9 6/42/9
f 17/43/10 18/44/10 20/45/10 19/46/10
f 19/47/11 20/48/11 2/49/11 1/50/11
f 1/51/12 3/52/12 5/53/12 7/54/12 9/55/12 11/56/12 13/57/12 15/58/12 17/59/12 19/60/12
