# Blender v2.75 (sub 0) OBJ File: 'fond.blend'
# www.blender.org
mtllib fond-2.mtl
o Sphere
v -21.477865 -21.262133 21.451813
v 21.220684 -21.262133 21.451813
v 21.220684 -21.262125 -21.246742
v -21.477865 -21.262125 -21.246742
v 21.220684 21.436422 21.451820
v -21.477865 21.436422 21.451820
v -21.477865 21.436430 -21.246735
v 21.220684 21.436430 -21.246735
vt 0.034165 0.965797
vt 0.034203 0.034165
vt 0.965835 0.034203
vt 0.965797 0.965835
vt 0.035624 0.964328
vt 0.035672 0.035624
vt 0.964376 0.035672
vt 0.964328 0.964376
vt 0.041261 0.967023
vt 0.041309 0.032928
vt 0.964690 0.032977
vt 0.964642 0.967072
vt 0.958534 0.958534
vt 0.041465 0.958534
vt 0.041465 0.041465
vt 0.958534 0.041465
vt 0.037203 0.962551
vt 0.037449 0.037202
vt 0.962798 0.037449
vt 0.962551 0.962797
vt 0.959837 0.959837
vt 0.040163 0.959837
vt 0.040163 0.040163
vt 0.959836 0.040163
vn -1.000000 0.000000 0.000000
vn -0.000000 0.000000 -1.000000
vn 1.000000 -0.000000 0.000000
vn 0.000000 1.000000 0.000000
vn 0.000000 -0.000000 1.000000
vn 0.000000 -1.000000 -0.000000
usemtl cote4
s 1
f 8/1/1 3/2/1 2/3/1 5/4/1
usemtl cote4_fond-cote-3.png
f 5/5/2 2/6/2 1/7/2 6/8/2
usemtl cote4_fond-cote-4.png
f 6/9/3 1/10/3 4/11/3 7/12/3
usemtl cote4_fond-bottom.png
f 1/13/4 2/14/4 3/15/4 4/16/4
usemtl cote4_fond-cote-1.png
f 7/17/5 4/18/5 3/19/5 8/20/5
usemtl cote4_fond-top.png
f 5/21/6 6/22/6 7/23/6 8/24/6
