# Blender v2.75 (sub 0) OBJ File: 'fond-2.blend'
# www.blender.org
mtllib fond-2.mtl
o Sphere
v -21.477865 -21.262133 21.451813
v 21.220684 -21.262133 21.451813
v 21.220684 -21.262125 -21.246742
v -21.477865 -21.262125 -21.246742
v 21.220684 21.436422 21.451820
v -21.477865 21.436422 21.451820
v -21.477865 21.436430 -21.246735
v 21.220684 21.436430 -21.246735
vt 0.005888 0.972491
vt 0.005965 0.027430
vt 0.990110 0.027509
vt 0.990034 0.972570
vt 0.916786 0.954697
vt 0.043508 0.954697
vt 0.043508 0.045303
vt 0.916785 0.045303
vt 0.975248 0.976228
vt 0.060617 0.976228
vt 0.060617 0.023771
vt 0.975247 0.023771
vt 0.007789 0.966869
vt 0.008125 0.032781
vt 0.980843 0.033131
vt 0.980507 0.967219
vt 0.012398 0.966816
vt 0.012754 0.032814
vt 0.985383 0.033184
vt 0.985028 0.967186
vt 0.008588 0.970699
vt 0.008720 0.029164
vt 0.989194 0.029301
vt 0.989062 0.970836
vn 1.000000 -0.000000 0.000000
vn 0.000000 1.000000 0.000000
vn 0.000000 -1.000000 -0.000000
vn -0.000000 0.000000 -1.000000
vn -1.000000 0.000000 0.000000
vn 0.000000 -0.000000 1.000000
usemtl None
s 1
f 6/1/1 1/2/1 4/3/1 7/4/1
usemtl None_fond-bottom.png
f 1/5/2 2/6/2 3/7/2 4/8/2
usemtl None_fond-top.png
f 5/9/3 6/10/3 7/11/3 8/12/3
usemtl None_fond-cote-4.png
f 5/13/4 2/14/4 1/15/4 6/16/4
usemtl None_fond-cote-3.png
f 8/17/5 3/18/5 2/19/5 5/20/5
usemtl None_fond-cote-2.png
f 7/21/6 4/22/6 3/23/6 8/24/6
