# Blender v2.79 (sub 0) OBJ File: 'untitled.blend'
# www.blender.org
mtllib fond1.mtl
o Sphere
v -21.477865 -21.262129 21.451817
v -21.477865 21.436426 21.451817
v -21.477865 -21.262129 -21.246738
v -21.477865 21.436426 -21.246738
v 21.220684 -21.262129 21.451817
v 21.220684 21.436426 21.451817
v 21.220684 -21.262129 -21.246738
v 21.220684 21.436426 -21.246738
vt 0.930963 0.632858
vt 0.930963 0.968506
vt 0.595314 0.968506
vt 0.595314 0.632858
vt 0.518762 0.654329
vt 0.518762 0.938848
vt 0.234243 0.938848
vt 0.234243 0.654329
vt 0.315359 0.477336
vt 0.315359 0.254363
vt 0.538437 0.254363
vt 0.538437 0.477336
vt 0.094514 0.478863
vt 0.094514 0.255890
vt 0.317592 0.255890
vt 0.317592 0.478863
vt 0.759281 0.479608
vt 0.759281 0.256583
vt 0.536255 0.256583
vt 0.536255 0.479608
vt 0.765752 0.483502
vt 0.765752 0.251253
vt 0.979920 0.251253
vt 0.979920 0.483502
vn 0.0000 1.0000 0.0000
vn 0.0000 -1.0000 0.0000
vn 0.0000 0.0000 1.0000
vn -1.0000 0.0000 0.0000
vn 1.0000 0.0000 0.0000
vn 0.0000 0.0000 -1.0000
usemtl None
s off
f 1/1/1 5/2/1 7/3/1 3/4/1
f 6/5/2 2/6/2 4/7/2 8/8/2
f 4/9/3 3/10/3 7/11/3 8/12/3
f 8/13/4 7/14/4 5/15/4 6/16/4
f 2/17/5 1/18/5 3/19/5 4/20/5
f 6/21/6 5/22/6 1/23/6 2/24/6
