# Blender v2.79 (sub 0) OBJ File: 'obstacle-2.blend'
# www.blender.org
mtllib obstacle-2.mtl
o Cube.001_Cube.000
v 0.500000 -0.500000 -0.500000
v 0.500000 -0.500000 0.500000
v -0.500000 -0.500000 0.500000
v -0.500000 -0.500000 -0.500000
v 0.500000 0.500000 -0.500000
v -0.500000 0.500000 -0.500000
v -0.500000 0.500000 0.500000
v 0.499999 0.500000 0.500000
vt 0.020905 0.098756
vt 0.984871 0.098755
vt 0.984871 0.922712
vt 0.020906 0.922713
vt 0.022812 0.095628
vt 0.983960 0.095629
vt 0.983960 0.917177
vt 0.022812 0.917177
vt 0.020619 0.095519
vt 0.986310 0.095519
vt 0.986310 0.920950
vt 0.020619 0.920950
vt 0.017718 0.117622
vt 0.985428 0.117559
vt 0.985501 0.903846
vt 0.017792 0.903909
vt 0.980529 0.031998
vt 0.980529 0.986543
vt 0.019471 0.986543
vt 0.019471 0.031998
vt 0.973451 0.053512
vt 0.973451 0.979972
vt 0.026549 0.979972
vt 0.026549 0.053513
vn 1.0000 0.0000 0.0000
vn 0.0000 -0.0000 1.0000
vn -1.0000 -0.0000 0.0000
vn 0.0000 0.0000 -1.0000
vn 0.0000 -1.0000 -0.0000
vn 0.0000 1.0000 0.0000
usemtl None.002
s 1
f 1/1/1 5/2/1 8/3/1 2/4/1
f 2/5/2 8/6/2 7/7/2 3/8/2
f 3/9/3 7/10/3 6/11/3 4/12/3
f 5/13/4 1/14/4 4/15/4 6/16/4
usemtl None.002_obstacle-top-bottom.png
f 1/17/5 2/18/5 3/19/5 4/20/5
f 5/21/6 6/22/6 7/23/6 8/24/6
