# Blender v2.79 (sub 0) OBJ File: 'untitled.blend'
# www.blender.org
mtllib obstacle.mtl
o Cube.001_Cube.000
v 0.500000 -0.500000 -0.500000
v 0.500000 -0.500000 0.500000
v -0.500000 -0.500000 0.500000
v -0.500000 -0.500000 -0.500000
v 0.500000 0.500000 -0.500000
v 0.499999 0.500000 0.500000
v -0.500000 0.500000 0.500000
v -0.500000 0.500000 -0.500000
vt 0.645099 0.527114
vt 0.352874 0.527114
vt 0.352874 0.282741
vt 0.645099 0.282741
vt 0.281969 0.977495
vt 0.037337 0.977495
vt 0.037336 0.772922
vt 0.281969 0.772922
vt 0.648558 0.549438
vt 0.648558 0.799595
vt 0.349415 0.799596
vt 0.349415 0.549438
vt 0.002678 0.253809
vt 0.002678 0.005290
vt 0.299861 0.005290
vt 0.299861 0.253809
vt 0.350528 0.254855
vt 0.350528 0.006560
vt 0.647444 0.006560
vt 0.647444 0.254855
vt 0.995194 0.006608
vt 0.995194 0.253980
vt 0.699383 0.253980
vt 0.699383 0.006608
vn 0.0000 -1.0000 -0.0000
vn 0.0000 1.0000 0.0000
vn 1.0000 0.0000 0.0000
vn -0.0000 -0.0000 1.0000
vn -1.0000 -0.0000 -0.0000
vn 0.0000 0.0000 -1.0000
usemtl None
s off
f 1/1/1 2/2/1 3/3/1 4/4/1
f 5/5/2 8/6/2 7/7/2 6/8/2
f 1/9/3 5/10/3 6/11/3 2/12/3
f 2/13/4 6/14/4 7/15/4 3/16/4
f 3/17/5 7/18/5 8/19/5 4/20/5
f 5/21/6 1/22/6 4/23/6 8/24/6
